<mxfile host="app.diagrams.net" agent="Mozilla/5.0 (Windows NT 10.0; Win64; x64) AppleWebKit/537.36 (KHTML, like Gecko) Chrome/130.0.0.0 YaBrowser/24.12.0.0 Safari/537.36" version="26.0.9">
  <diagram name="Страница — 1" id="2c7MSHSHjmUPkz57GJhJ">
    <mxGraphModel dx="1386" dy="783" grid="1" gridSize="10" guides="1" tooltips="1" connect="1" arrows="1" fold="1" page="1" pageScale="1" pageWidth="827" pageHeight="1169" math="0" shadow="0">
      <root>
        <mxCell id="0" />
        <mxCell id="1" parent="0" />
        <mxCell id="WZWnq2b56GBAlJ1qz86L-117" value="" style="endArrow=classic;html=1;rounded=0;entryX=0.068;entryY=0.055;entryDx=0;entryDy=0;entryPerimeter=0;exitX=1;exitY=0.058;exitDx=0;exitDy=0;exitPerimeter=0;" edge="1" parent="1">
          <mxGeometry width="50" height="50" relative="1" as="geometry">
            <mxPoint x="424" y="1340" as="sourcePoint" />
            <mxPoint x="1095" y="1341" as="targetPoint" />
          </mxGeometry>
        </mxCell>
        <mxCell id="WZWnq2b56GBAlJ1qz86L-107" value="" style="endArrow=classic;html=1;rounded=0;" edge="1" parent="1">
          <mxGeometry width="50" height="50" relative="1" as="geometry">
            <mxPoint x="1455" y="1137" as="sourcePoint" />
            <mxPoint x="425" y="1137" as="targetPoint" />
          </mxGeometry>
        </mxCell>
        <mxCell id="WZWnq2b56GBAlJ1qz86L-105" value="" style="endArrow=classic;html=1;rounded=0;entryX=0;entryY=0.25;entryDx=0;entryDy=0;" edge="1" parent="1">
          <mxGeometry width="50" height="50" relative="1" as="geometry">
            <mxPoint x="426" y="1080" as="sourcePoint" />
            <mxPoint x="1275" y="1079.5" as="targetPoint" />
          </mxGeometry>
        </mxCell>
        <mxCell id="WZWnq2b56GBAlJ1qz86L-100" value="" style="endArrow=classic;html=1;rounded=0;" edge="1" parent="1">
          <mxGeometry width="50" height="50" relative="1" as="geometry">
            <mxPoint x="1455" y="959" as="sourcePoint" />
            <mxPoint x="425" y="959" as="targetPoint" />
          </mxGeometry>
        </mxCell>
        <mxCell id="WZWnq2b56GBAlJ1qz86L-91" value="" style="endArrow=classic;html=1;rounded=0;entryX=0;entryY=0.25;entryDx=0;entryDy=0;exitX=0.988;exitY=0.503;exitDx=0;exitDy=0;exitPerimeter=0;" edge="1" parent="1" source="WZWnq2b56GBAlJ1qz86L-13">
          <mxGeometry width="50" height="50" relative="1" as="geometry">
            <mxPoint x="430" y="920" as="sourcePoint" />
            <mxPoint x="1275" y="925.5" as="targetPoint" />
          </mxGeometry>
        </mxCell>
        <mxCell id="WZWnq2b56GBAlJ1qz86L-85" value="" style="endArrow=classic;html=1;rounded=0;" edge="1" parent="1">
          <mxGeometry width="50" height="50" relative="1" as="geometry">
            <mxPoint x="1456" y="759" as="sourcePoint" />
            <mxPoint x="426" y="759" as="targetPoint" />
          </mxGeometry>
        </mxCell>
        <mxCell id="WZWnq2b56GBAlJ1qz86L-77" value="" style="endArrow=classic;html=1;rounded=0;" edge="1" parent="1">
          <mxGeometry width="50" height="50" relative="1" as="geometry">
            <mxPoint x="1455" y="612" as="sourcePoint" />
            <mxPoint x="425" y="612" as="targetPoint" />
          </mxGeometry>
        </mxCell>
        <mxCell id="WZWnq2b56GBAlJ1qz86L-67" value="" style="endArrow=classic;html=1;rounded=0;entryX=1.222;entryY=0.256;entryDx=0;entryDy=0;entryPerimeter=0;" edge="1" parent="1">
          <mxGeometry width="50" height="50" relative="1" as="geometry">
            <mxPoint x="1278" y="536" as="sourcePoint" />
            <mxPoint x="425.2199999999998" y="535.8400000000001" as="targetPoint" />
          </mxGeometry>
        </mxCell>
        <mxCell id="WZWnq2b56GBAlJ1qz86L-64" style="edgeStyle=orthogonalEdgeStyle;rounded=0;orthogonalLoop=1;jettySize=auto;html=1;entryX=-0.09;entryY=0.12;entryDx=0;entryDy=0;entryPerimeter=0;" edge="1" parent="1" target="WZWnq2b56GBAlJ1qz86L-56">
          <mxGeometry relative="1" as="geometry">
            <mxPoint x="1280" y="505" as="targetPoint" />
            <mxPoint x="425" y="505" as="sourcePoint" />
            <Array as="points">
              <mxPoint x="425" y="506" />
            </Array>
          </mxGeometry>
        </mxCell>
        <mxCell id="WZWnq2b56GBAlJ1qz86L-52" value="" style="endArrow=classic;html=1;rounded=0;exitX=1.015;exitY=0.01;exitDx=0;exitDy=0;exitPerimeter=0;entryX=-0.033;entryY=0.01;entryDx=0;entryDy=0;entryPerimeter=0;" edge="1" parent="1" source="WZWnq2b56GBAlJ1qz86L-13" target="WZWnq2b56GBAlJ1qz86L-50">
          <mxGeometry width="50" height="50" relative="1" as="geometry">
            <mxPoint x="430" y="170" as="sourcePoint" />
            <mxPoint x="1090" y="170" as="targetPoint" />
          </mxGeometry>
        </mxCell>
        <mxCell id="WZWnq2b56GBAlJ1qz86L-3" value="Пользователь" style="shape=umlActor;verticalLabelPosition=bottom;verticalAlign=top;html=1;outlineConnect=0;" vertex="1" parent="1">
          <mxGeometry x="205" y="60" width="30" height="60" as="geometry" />
        </mxCell>
        <mxCell id="WZWnq2b56GBAlJ1qz86L-4" value="" style="endArrow=none;dashed=1;html=1;rounded=0;" edge="1" parent="1">
          <mxGeometry width="50" height="50" relative="1" as="geometry">
            <mxPoint x="220" y="1720" as="sourcePoint" />
            <mxPoint x="220" y="140" as="targetPoint" />
          </mxGeometry>
        </mxCell>
        <mxCell id="WZWnq2b56GBAlJ1qz86L-5" value="" style="rounded=0;whiteSpace=wrap;html=1;" vertex="1" parent="1">
          <mxGeometry x="215" y="190" width="10" height="1510" as="geometry" />
        </mxCell>
        <mxCell id="WZWnq2b56GBAlJ1qz86L-6" value="" style="endArrow=classic;html=1;rounded=0;entryX=0.167;entryY=0.21;entryDx=0;entryDy=0;entryPerimeter=0;exitX=1.06;exitY=0.008;exitDx=0;exitDy=0;exitPerimeter=0;" edge="1" parent="1" source="WZWnq2b56GBAlJ1qz86L-5" target="WZWnq2b56GBAlJ1qz86L-9">
          <mxGeometry width="50" height="50" relative="1" as="geometry">
            <mxPoint x="230" y="205" as="sourcePoint" />
            <mxPoint x="570" y="200" as="targetPoint" />
          </mxGeometry>
        </mxCell>
        <mxCell id="WZWnq2b56GBAlJ1qz86L-7" value="Считыватель RC-522" style="rounded=1;whiteSpace=wrap;html=1;" vertex="1" parent="1">
          <mxGeometry x="520" y="60" width="120" height="60" as="geometry" />
        </mxCell>
        <mxCell id="WZWnq2b56GBAlJ1qz86L-8" value="" style="endArrow=none;dashed=1;html=1;rounded=0;entryX=0.5;entryY=1;entryDx=0;entryDy=0;" edge="1" parent="1" source="WZWnq2b56GBAlJ1qz86L-13" target="WZWnq2b56GBAlJ1qz86L-11">
          <mxGeometry width="50" height="50" relative="1" as="geometry">
            <mxPoint x="420" y="520" as="sourcePoint" />
            <mxPoint x="420" y="160" as="targetPoint" />
          </mxGeometry>
        </mxCell>
        <mxCell id="WZWnq2b56GBAlJ1qz86L-9" value="" style="rounded=0;whiteSpace=wrap;html=1;" vertex="1" parent="1">
          <mxGeometry x="575" y="190" width="10" height="70" as="geometry" />
        </mxCell>
        <mxCell id="WZWnq2b56GBAlJ1qz86L-10" value="Считывание UID карты" style="text;html=1;align=center;verticalAlign=middle;whiteSpace=wrap;rounded=0;" vertex="1" parent="1">
          <mxGeometry x="235" y="180" width="170" height="30" as="geometry" />
        </mxCell>
        <mxCell id="WZWnq2b56GBAlJ1qz86L-11" value="Arduino MEGA" style="rounded=1;whiteSpace=wrap;html=1;" vertex="1" parent="1">
          <mxGeometry x="360" y="60" width="120" height="60" as="geometry" />
        </mxCell>
        <mxCell id="WZWnq2b56GBAlJ1qz86L-17" value="Raspberry Pi 4" style="rounded=1;whiteSpace=wrap;html=1;" vertex="1" parent="1">
          <mxGeometry x="680" y="60" width="120" height="60" as="geometry" />
        </mxCell>
        <mxCell id="WZWnq2b56GBAlJ1qz86L-18" value="" style="endArrow=none;dashed=1;html=1;rounded=0;entryX=0.5;entryY=1;entryDx=0;entryDy=0;" edge="1" parent="1" source="WZWnq2b56GBAlJ1qz86L-20" target="WZWnq2b56GBAlJ1qz86L-17">
          <mxGeometry width="50" height="50" relative="1" as="geometry">
            <mxPoint x="740" y="520" as="sourcePoint" />
            <mxPoint x="740" y="160" as="targetPoint" />
          </mxGeometry>
        </mxCell>
        <mxCell id="WZWnq2b56GBAlJ1qz86L-19" value="" style="endArrow=classic;html=1;rounded=0;exitX=-0.013;exitY=0.599;exitDx=0;exitDy=0;exitPerimeter=0;entryX=1.1;entryY=0.131;entryDx=0;entryDy=0;entryPerimeter=0;" edge="1" parent="1">
          <mxGeometry width="50" height="50" relative="1" as="geometry">
            <mxPoint x="574.8700000000001" y="255.95" as="sourcePoint" />
            <mxPoint x="426" y="255.3" as="targetPoint" />
          </mxGeometry>
        </mxCell>
        <mxCell id="WZWnq2b56GBAlJ1qz86L-21" value="" style="endArrow=none;dashed=1;html=1;rounded=0;" edge="1" parent="1" target="WZWnq2b56GBAlJ1qz86L-20">
          <mxGeometry width="50" height="50" relative="1" as="geometry">
            <mxPoint x="740" y="1720" as="sourcePoint" />
            <mxPoint x="740" y="160" as="targetPoint" />
          </mxGeometry>
        </mxCell>
        <mxCell id="WZWnq2b56GBAlJ1qz86L-20" value="" style="rounded=0;whiteSpace=wrap;html=1;" vertex="1" parent="1">
          <mxGeometry x="735" y="270" width="10" height="100" as="geometry" />
        </mxCell>
        <mxCell id="WZWnq2b56GBAlJ1qz86L-22" value="&lt;span style=&quot;font-family: Verdana; text-wrap-mode: nowrap;&quot;&gt;Передача UID&amp;nbsp;&lt;/span&gt;&lt;div style=&quot;font-family: Verdana; text-wrap-mode: nowrap;&quot;&gt;плате&lt;/div&gt;" style="text;html=1;align=center;verticalAlign=middle;whiteSpace=wrap;rounded=0;" vertex="1" parent="1">
          <mxGeometry x="440" y="220" width="130" height="30" as="geometry" />
        </mxCell>
        <mxCell id="WZWnq2b56GBAlJ1qz86L-24" value="" style="endArrow=classic;html=1;rounded=0;entryX=0.973;entryY=0.389;entryDx=0;entryDy=0;entryPerimeter=0;" edge="1" parent="1">
          <mxGeometry width="50" height="50" relative="1" as="geometry">
            <mxPoint x="745" y="296" as="sourcePoint" />
            <mxPoint x="744.73" y="316.01999999999987" as="targetPoint" />
            <Array as="points">
              <mxPoint x="780" y="296" />
              <mxPoint x="780" y="316" />
            </Array>
          </mxGeometry>
        </mxCell>
        <mxCell id="WZWnq2b56GBAlJ1qz86L-25" value="&lt;span style=&quot;font-family: Verdana; text-wrap-mode: nowrap;&quot;&gt;Обработка UID&lt;/span&gt;" style="text;html=1;align=center;verticalAlign=middle;whiteSpace=wrap;rounded=0;" vertex="1" parent="1">
          <mxGeometry x="800" y="291" width="60" height="30" as="geometry" />
        </mxCell>
        <mxCell id="WZWnq2b56GBAlJ1qz86L-26" value="" style="endArrow=classic;html=1;rounded=0;exitX=-0.07;exitY=0.898;exitDx=0;exitDy=0;exitPerimeter=0;" edge="1" parent="1" source="WZWnq2b56GBAlJ1qz86L-20">
          <mxGeometry width="50" height="50" relative="1" as="geometry">
            <mxPoint x="730" y="360" as="sourcePoint" />
            <mxPoint x="430" y="360" as="targetPoint" />
          </mxGeometry>
        </mxCell>
        <mxCell id="WZWnq2b56GBAlJ1qz86L-27" value="Вердикт о РЗД" style="text;html=1;align=center;verticalAlign=middle;whiteSpace=wrap;rounded=0;" vertex="1" parent="1">
          <mxGeometry x="630" y="325" width="60" height="30" as="geometry" />
        </mxCell>
        <mxCell id="WZWnq2b56GBAlJ1qz86L-29" value="[Проезд по карте разрешён]" style="text;html=1;align=center;verticalAlign=middle;whiteSpace=wrap;rounded=0;" vertex="1" parent="1">
          <mxGeometry x="245" y="421" width="60" height="30" as="geometry" />
        </mxCell>
        <mxCell id="WZWnq2b56GBAlJ1qz86L-33" value="RGB-светодиод" style="rounded=1;whiteSpace=wrap;html=1;" vertex="1" parent="1">
          <mxGeometry x="860" y="60" width="120" height="60" as="geometry" />
        </mxCell>
        <mxCell id="WZWnq2b56GBAlJ1qz86L-34" value="" style="endArrow=none;dashed=1;html=1;rounded=0;entryX=0.5;entryY=1;entryDx=0;entryDy=0;" edge="1" parent="1" target="WZWnq2b56GBAlJ1qz86L-33">
          <mxGeometry width="50" height="50" relative="1" as="geometry">
            <mxPoint x="920" y="1720" as="sourcePoint" />
            <mxPoint x="940" y="160" as="targetPoint" />
          </mxGeometry>
        </mxCell>
        <mxCell id="WZWnq2b56GBAlJ1qz86L-35" value="" style="rounded=0;whiteSpace=wrap;html=1;" vertex="1" parent="1">
          <mxGeometry x="915" y="140" width="10" height="1560" as="geometry" />
        </mxCell>
        <mxCell id="WZWnq2b56GBAlJ1qz86L-37" value="" style="endArrow=none;dashed=1;html=1;rounded=0;" edge="1" parent="1" target="WZWnq2b56GBAlJ1qz86L-13">
          <mxGeometry width="50" height="50" relative="1" as="geometry">
            <mxPoint x="420" y="1720" as="sourcePoint" />
            <mxPoint x="420" y="160" as="targetPoint" />
            <Array as="points" />
          </mxGeometry>
        </mxCell>
        <mxCell id="WZWnq2b56GBAlJ1qz86L-13" value="" style="rounded=0;whiteSpace=wrap;html=1;" vertex="1" parent="1">
          <mxGeometry x="415" y="150" width="10" height="1540" as="geometry" />
        </mxCell>
        <mxCell id="WZWnq2b56GBAlJ1qz86L-39" value="" style="endArrow=none;dashed=1;html=1;rounded=0;entryX=0.5;entryY=1;entryDx=0;entryDy=0;" edge="1" parent="1" target="WZWnq2b56GBAlJ1qz86L-7">
          <mxGeometry width="50" height="50" relative="1" as="geometry">
            <mxPoint x="580" y="1720" as="sourcePoint" />
            <mxPoint x="580" y="160" as="targetPoint" />
          </mxGeometry>
        </mxCell>
        <mxCell id="WZWnq2b56GBAlJ1qz86L-41" value="" style="endArrow=classic;html=1;rounded=0;entryX=-0.028;entryY=0.101;entryDx=0;entryDy=0;entryPerimeter=0;" edge="1" parent="1" target="WZWnq2b56GBAlJ1qz86L-20">
          <mxGeometry width="50" height="50" relative="1" as="geometry">
            <mxPoint x="430" y="280" as="sourcePoint" />
            <mxPoint x="510" y="280" as="targetPoint" />
          </mxGeometry>
        </mxCell>
        <mxCell id="WZWnq2b56GBAlJ1qz86L-42" value="&lt;span style=&quot;text-wrap-mode: nowrap; font-family: Verdana;&quot;&gt;Передача UID&amp;nbsp;&lt;/span&gt;&lt;div style=&quot;text-wrap-mode: nowrap; font-family: Verdana;&quot;&gt;на обработку&lt;/div&gt;" style="text;html=1;align=center;verticalAlign=middle;whiteSpace=wrap;rounded=0;" vertex="1" parent="1">
          <mxGeometry x="610" y="250" width="60" height="30" as="geometry" />
        </mxCell>
        <mxCell id="WZWnq2b56GBAlJ1qz86L-45" value="" style="endArrow=classic;html=1;rounded=0;" edge="1" parent="1">
          <mxGeometry width="50" height="50" relative="1" as="geometry">
            <mxPoint x="425" y="160" as="sourcePoint" />
            <mxPoint x="910" y="160" as="targetPoint" />
          </mxGeometry>
        </mxCell>
        <mxCell id="WZWnq2b56GBAlJ1qz86L-47" value="Включить красный цвет" style="text;html=1;align=center;verticalAlign=middle;whiteSpace=wrap;rounded=0;" vertex="1" parent="1">
          <mxGeometry x="800" y="120" width="60" height="30" as="geometry" />
        </mxCell>
        <mxCell id="WZWnq2b56GBAlJ1qz86L-48" value="OLED-дисплей" style="rounded=1;whiteSpace=wrap;html=1;" vertex="1" parent="1">
          <mxGeometry x="1040" y="60" width="120" height="60" as="geometry" />
        </mxCell>
        <mxCell id="WZWnq2b56GBAlJ1qz86L-49" value="" style="endArrow=none;dashed=1;html=1;rounded=0;" edge="1" parent="1" source="WZWnq2b56GBAlJ1qz86L-50">
          <mxGeometry width="50" height="50" relative="1" as="geometry">
            <mxPoint x="1100" y="520" as="sourcePoint" />
            <mxPoint x="1100" y="120" as="targetPoint" />
          </mxGeometry>
        </mxCell>
        <mxCell id="WZWnq2b56GBAlJ1qz86L-51" value="" style="endArrow=none;dashed=1;html=1;rounded=0;" edge="1" parent="1" target="WZWnq2b56GBAlJ1qz86L-50">
          <mxGeometry width="50" height="50" relative="1" as="geometry">
            <mxPoint x="1100" y="1720" as="sourcePoint" />
            <mxPoint x="1100" y="120" as="targetPoint" />
          </mxGeometry>
        </mxCell>
        <mxCell id="WZWnq2b56GBAlJ1qz86L-50" value="" style="rounded=0;whiteSpace=wrap;html=1;" vertex="1" parent="1">
          <mxGeometry x="1095" y="150" width="10" height="1550" as="geometry" />
        </mxCell>
        <mxCell id="WZWnq2b56GBAlJ1qz86L-53" value="Вывести сообщение о ожидании карты" style="text;html=1;align=center;verticalAlign=middle;whiteSpace=wrap;rounded=0;" vertex="1" parent="1">
          <mxGeometry x="950" y="140" width="120" height="30" as="geometry" />
        </mxCell>
        <mxCell id="WZWnq2b56GBAlJ1qz86L-54" value="Мотор" style="rounded=1;whiteSpace=wrap;html=1;" vertex="1" parent="1">
          <mxGeometry x="1220" y="60" width="120" height="60" as="geometry" />
        </mxCell>
        <mxCell id="WZWnq2b56GBAlJ1qz86L-55" value="" style="endArrow=none;dashed=1;html=1;rounded=0;entryX=0.5;entryY=1;entryDx=0;entryDy=0;" edge="1" parent="1" source="WZWnq2b56GBAlJ1qz86L-56" target="WZWnq2b56GBAlJ1qz86L-54">
          <mxGeometry width="50" height="50" relative="1" as="geometry">
            <mxPoint x="1280" y="520" as="sourcePoint" />
            <mxPoint x="1260" y="190" as="targetPoint" />
          </mxGeometry>
        </mxCell>
        <mxCell id="WZWnq2b56GBAlJ1qz86L-57" value="" style="endArrow=none;dashed=1;html=1;rounded=0;entryX=0.5;entryY=1;entryDx=0;entryDy=0;" edge="1" parent="1" source="WZWnq2b56GBAlJ1qz86L-89" target="WZWnq2b56GBAlJ1qz86L-56">
          <mxGeometry width="50" height="50" relative="1" as="geometry">
            <mxPoint x="1280" y="1120" as="sourcePoint" />
            <mxPoint x="1280" y="120" as="targetPoint" />
          </mxGeometry>
        </mxCell>
        <mxCell id="WZWnq2b56GBAlJ1qz86L-56" value="" style="rounded=0;whiteSpace=wrap;html=1;" vertex="1" parent="1">
          <mxGeometry x="1275" y="500" width="10" height="50" as="geometry" />
        </mxCell>
        <mxCell id="WZWnq2b56GBAlJ1qz86L-28" value="alt" style="shape=umlFrame;whiteSpace=wrap;html=1;pointerEvents=0;" vertex="1" parent="1">
          <mxGeometry x="235" y="380" width="1325" height="1140" as="geometry" />
        </mxCell>
        <mxCell id="WZWnq2b56GBAlJ1qz86L-59" value="" style="endArrow=classic;html=1;rounded=0;exitX=1.033;exitY=0.02;exitDx=0;exitDy=0;exitPerimeter=0;entryX=-0.03;entryY=0.045;entryDx=0;entryDy=0;entryPerimeter=0;" edge="1" parent="1">
          <mxGeometry width="50" height="50" relative="1" as="geometry">
            <mxPoint x="426" y="440" as="sourcePoint" />
            <mxPoint x="916" y="440" as="targetPoint" />
          </mxGeometry>
        </mxCell>
        <mxCell id="WZWnq2b56GBAlJ1qz86L-60" value="Включить зелёный цвет" style="text;html=1;align=center;verticalAlign=middle;whiteSpace=wrap;rounded=0;" vertex="1" parent="1">
          <mxGeometry x="630" y="400" width="60" height="30" as="geometry" />
        </mxCell>
        <mxCell id="WZWnq2b56GBAlJ1qz86L-61" value="" style="endArrow=classic;html=1;rounded=0;entryX=0.068;entryY=0.055;entryDx=0;entryDy=0;entryPerimeter=0;exitX=1;exitY=0.058;exitDx=0;exitDy=0;exitPerimeter=0;" edge="1" parent="1">
          <mxGeometry width="50" height="50" relative="1" as="geometry">
            <mxPoint x="427" y="471" as="sourcePoint" />
            <mxPoint x="1098" y="472" as="targetPoint" />
          </mxGeometry>
        </mxCell>
        <mxCell id="WZWnq2b56GBAlJ1qz86L-62" value="Вывести сообщение о разрешении доступа" style="text;html=1;align=center;verticalAlign=middle;whiteSpace=wrap;rounded=0;" vertex="1" parent="1">
          <mxGeometry x="950" y="434" width="120" height="30" as="geometry" />
        </mxCell>
        <mxCell id="WZWnq2b56GBAlJ1qz86L-65" value="Включить" style="text;html=1;align=center;verticalAlign=middle;whiteSpace=wrap;rounded=0;" vertex="1" parent="1">
          <mxGeometry x="790" y="480" width="60" height="30" as="geometry" />
        </mxCell>
        <mxCell id="WZWnq2b56GBAlJ1qz86L-68" value="Выключить" style="text;html=1;align=center;verticalAlign=middle;whiteSpace=wrap;rounded=0;" vertex="1" parent="1">
          <mxGeometry x="790" y="510" width="60" height="30" as="geometry" />
        </mxCell>
        <mxCell id="WZWnq2b56GBAlJ1qz86L-71" value="Датчик расстояния" style="rounded=1;whiteSpace=wrap;html=1;" vertex="1" parent="1">
          <mxGeometry x="1400" y="60" width="120" height="60" as="geometry" />
        </mxCell>
        <mxCell id="WZWnq2b56GBAlJ1qz86L-72" value="" style="endArrow=none;dashed=1;html=1;rounded=0;" edge="1" parent="1" source="WZWnq2b56GBAlJ1qz86L-75">
          <mxGeometry width="50" height="50" relative="1" as="geometry">
            <mxPoint x="1460" y="880" as="sourcePoint" />
            <mxPoint x="1460" y="120" as="targetPoint" />
          </mxGeometry>
        </mxCell>
        <mxCell id="WZWnq2b56GBAlJ1qz86L-73" value="loop" style="shape=umlFrame;whiteSpace=wrap;html=1;pointerEvents=0;" vertex="1" parent="1">
          <mxGeometry x="330" y="560" width="1170" height="120" as="geometry" />
        </mxCell>
        <mxCell id="WZWnq2b56GBAlJ1qz86L-74" value="[Пока объект не появится в зоне видимости датчика]" style="text;html=1;align=center;verticalAlign=middle;whiteSpace=wrap;rounded=0;" vertex="1" parent="1">
          <mxGeometry x="344" y="620" width="60" height="30" as="geometry" />
        </mxCell>
        <mxCell id="WZWnq2b56GBAlJ1qz86L-76" value="" style="endArrow=none;dashed=1;html=1;rounded=0;" edge="1" parent="1" source="WZWnq2b56GBAlJ1qz86L-98" target="WZWnq2b56GBAlJ1qz86L-75">
          <mxGeometry width="50" height="50" relative="1" as="geometry">
            <mxPoint x="1460" y="1440" as="sourcePoint" />
            <mxPoint x="1460" y="120" as="targetPoint" />
          </mxGeometry>
        </mxCell>
        <mxCell id="WZWnq2b56GBAlJ1qz86L-75" value="" style="rounded=0;whiteSpace=wrap;html=1;" vertex="1" parent="1">
          <mxGeometry x="1455" y="570" width="10" height="50" as="geometry" />
        </mxCell>
        <mxCell id="WZWnq2b56GBAlJ1qz86L-78" value="Снятие показаний" style="text;html=1;align=center;verticalAlign=middle;resizable=0;points=[];autosize=1;strokeColor=none;fillColor=none;" vertex="1" parent="1">
          <mxGeometry x="950" y="585" width="120" height="30" as="geometry" />
        </mxCell>
        <mxCell id="WZWnq2b56GBAlJ1qz86L-81" value="loop" style="shape=umlFrame;whiteSpace=wrap;html=1;pointerEvents=0;" vertex="1" parent="1">
          <mxGeometry x="330" y="690" width="1170" height="120" as="geometry" />
        </mxCell>
        <mxCell id="WZWnq2b56GBAlJ1qz86L-82" value="[Пока объект не удалится из зоны видимости датчика]" style="text;html=1;align=center;verticalAlign=middle;whiteSpace=wrap;rounded=0;" vertex="1" parent="1">
          <mxGeometry x="344" y="750" width="60" height="30" as="geometry" />
        </mxCell>
        <mxCell id="WZWnq2b56GBAlJ1qz86L-83" value="" style="rounded=0;whiteSpace=wrap;html=1;" vertex="1" parent="1">
          <mxGeometry x="1455" y="720" width="10" height="50" as="geometry" />
        </mxCell>
        <mxCell id="WZWnq2b56GBAlJ1qz86L-86" value="Снятие показаний" style="text;html=1;align=center;verticalAlign=middle;resizable=0;points=[];autosize=1;strokeColor=none;fillColor=none;" vertex="1" parent="1">
          <mxGeometry x="950" y="730" width="120" height="30" as="geometry" />
        </mxCell>
        <mxCell id="WZWnq2b56GBAlJ1qz86L-87" value="loop" style="shape=umlFrame;whiteSpace=wrap;html=1;pointerEvents=0;" vertex="1" parent="1">
          <mxGeometry x="245" y="820" width="1300" height="400" as="geometry" />
        </mxCell>
        <mxCell id="WZWnq2b56GBAlJ1qz86L-88" value="[Пока ворота не закрылись]" style="text;html=1;align=center;verticalAlign=middle;whiteSpace=wrap;rounded=0;" vertex="1" parent="1">
          <mxGeometry x="248" y="860" width="60" height="30" as="geometry" />
        </mxCell>
        <mxCell id="WZWnq2b56GBAlJ1qz86L-90" value="" style="endArrow=none;dashed=1;html=1;rounded=0;entryX=0.5;entryY=1;entryDx=0;entryDy=0;" edge="1" parent="1" target="WZWnq2b56GBAlJ1qz86L-89">
          <mxGeometry width="50" height="50" relative="1" as="geometry">
            <mxPoint x="1280" y="2080" as="sourcePoint" />
            <mxPoint x="1280" y="550" as="targetPoint" />
          </mxGeometry>
        </mxCell>
        <mxCell id="WZWnq2b56GBAlJ1qz86L-89" value="" style="rounded=0;whiteSpace=wrap;html=1;" vertex="1" parent="1">
          <mxGeometry x="1275" y="905" width="10" height="35" as="geometry" />
        </mxCell>
        <mxCell id="WZWnq2b56GBAlJ1qz86L-92" value="Включить в обратную сторону" style="text;html=1;align=center;verticalAlign=middle;whiteSpace=wrap;rounded=0;" vertex="1" parent="1">
          <mxGeometry x="737" y="900" width="180" height="30" as="geometry" />
        </mxCell>
        <mxCell id="WZWnq2b56GBAlJ1qz86L-93" value="alt" style="shape=umlFrame;whiteSpace=wrap;html=1;pointerEvents=0;" vertex="1" parent="1">
          <mxGeometry x="310" y="830" width="1220" height="380" as="geometry" />
        </mxCell>
        <mxCell id="WZWnq2b56GBAlJ1qz86L-95" value="Объекта нет в зоне видимости датчика" style="text;html=1;align=center;verticalAlign=middle;whiteSpace=wrap;rounded=0;" vertex="1" parent="1">
          <mxGeometry x="350" y="840" width="16" height="100" as="geometry" />
        </mxCell>
        <mxCell id="WZWnq2b56GBAlJ1qz86L-97" value="Объект появился в зоне видимости датчика" style="text;html=1;align=center;verticalAlign=middle;whiteSpace=wrap;rounded=0;" vertex="1" parent="1">
          <mxGeometry x="314" y="965" width="100" height="100" as="geometry" />
        </mxCell>
        <mxCell id="WZWnq2b56GBAlJ1qz86L-99" value="" style="endArrow=none;dashed=1;html=1;rounded=0;" edge="1" parent="1" source="WZWnq2b56GBAlJ1qz86L-103" target="WZWnq2b56GBAlJ1qz86L-98">
          <mxGeometry width="50" height="50" relative="1" as="geometry">
            <mxPoint x="1460" y="1440" as="sourcePoint" />
            <mxPoint x="1460" y="620" as="targetPoint" />
          </mxGeometry>
        </mxCell>
        <mxCell id="WZWnq2b56GBAlJ1qz86L-98" value="" style="rounded=0;whiteSpace=wrap;html=1;" vertex="1" parent="1">
          <mxGeometry x="1455" y="940" width="10" height="35" as="geometry" />
        </mxCell>
        <mxCell id="WZWnq2b56GBAlJ1qz86L-101" value="Снятие показаний" style="text;html=1;align=center;verticalAlign=middle;resizable=0;points=[];autosize=1;strokeColor=none;fillColor=none;" vertex="1" parent="1">
          <mxGeometry x="950" y="935" width="120" height="30" as="geometry" />
        </mxCell>
        <mxCell id="WZWnq2b56GBAlJ1qz86L-102" value="" style="rounded=0;whiteSpace=wrap;html=1;" vertex="1" parent="1">
          <mxGeometry x="1275" y="1060" width="10" height="35" as="geometry" />
        </mxCell>
        <mxCell id="WZWnq2b56GBAlJ1qz86L-104" value="" style="endArrow=none;dashed=1;html=1;rounded=0;" edge="1" parent="1" target="WZWnq2b56GBAlJ1qz86L-103">
          <mxGeometry width="50" height="50" relative="1" as="geometry">
            <mxPoint x="1460" y="2080" as="sourcePoint" />
            <mxPoint x="1460" y="975" as="targetPoint" />
          </mxGeometry>
        </mxCell>
        <mxCell id="WZWnq2b56GBAlJ1qz86L-103" value="" style="rounded=0;whiteSpace=wrap;html=1;" vertex="1" parent="1">
          <mxGeometry x="1455" y="1110" width="10" height="35" as="geometry" />
        </mxCell>
        <mxCell id="WZWnq2b56GBAlJ1qz86L-106" value="Стоп" style="text;html=1;align=center;verticalAlign=middle;whiteSpace=wrap;rounded=0;" vertex="1" parent="1">
          <mxGeometry x="800" y="1050" width="60" height="30" as="geometry" />
        </mxCell>
        <mxCell id="WZWnq2b56GBAlJ1qz86L-108" value="Снятие показаний" style="text;html=1;align=center;verticalAlign=middle;resizable=0;points=[];autosize=1;strokeColor=none;fillColor=none;" vertex="1" parent="1">
          <mxGeometry x="940" y="1110" width="120" height="30" as="geometry" />
        </mxCell>
        <mxCell id="WZWnq2b56GBAlJ1qz86L-109" value="" style="endArrow=none;dashed=1;html=1;dashPattern=1 3;strokeWidth=2;rounded=0;" edge="1" parent="1" target="WZWnq2b56GBAlJ1qz86L-93">
          <mxGeometry width="50" height="50" relative="1" as="geometry">
            <mxPoint x="310" y="980" as="sourcePoint" />
            <mxPoint x="360" y="930" as="targetPoint" />
          </mxGeometry>
        </mxCell>
        <mxCell id="WZWnq2b56GBAlJ1qz86L-110" value="" style="endArrow=none;dashed=1;html=1;dashPattern=1 3;strokeWidth=2;rounded=0;exitX=0;exitY=0.398;exitDx=0;exitDy=0;exitPerimeter=0;entryX=1.002;entryY=0.403;entryDx=0;entryDy=0;entryPerimeter=0;" edge="1" parent="1">
          <mxGeometry width="50" height="50" relative="1" as="geometry">
            <mxPoint x="310" y="980.22" as="sourcePoint" />
            <mxPoint x="1532.44" y="982.1700000000001" as="targetPoint" />
          </mxGeometry>
        </mxCell>
        <mxCell id="WZWnq2b56GBAlJ1qz86L-113" value="" style="endArrow=none;dashed=1;html=1;dashPattern=1 3;strokeWidth=2;rounded=0;" edge="1" parent="1">
          <mxGeometry width="50" height="50" relative="1" as="geometry">
            <mxPoint x="240" y="1240" as="sourcePoint" />
            <mxPoint x="1570" y="1240" as="targetPoint" />
          </mxGeometry>
        </mxCell>
        <mxCell id="WZWnq2b56GBAlJ1qz86L-114" value="[Срок использования карты истёк]" style="text;html=1;align=center;verticalAlign=middle;whiteSpace=wrap;rounded=0;" vertex="1" parent="1">
          <mxGeometry x="260" y="1260" width="110" height="40" as="geometry" />
        </mxCell>
        <mxCell id="WZWnq2b56GBAlJ1qz86L-115" value="" style="endArrow=classic;html=1;rounded=0;exitX=1.033;exitY=0.02;exitDx=0;exitDy=0;exitPerimeter=0;entryX=-0.03;entryY=0.045;entryDx=0;entryDy=0;entryPerimeter=0;" edge="1" parent="1">
          <mxGeometry width="50" height="50" relative="1" as="geometry">
            <mxPoint x="426" y="1280" as="sourcePoint" />
            <mxPoint x="916" y="1280" as="targetPoint" />
          </mxGeometry>
        </mxCell>
        <mxCell id="WZWnq2b56GBAlJ1qz86L-116" value="Включить синий цвет" style="text;html=1;align=center;verticalAlign=middle;whiteSpace=wrap;rounded=0;" vertex="1" parent="1">
          <mxGeometry x="600" y="1245" width="100" height="30" as="geometry" />
        </mxCell>
        <mxCell id="WZWnq2b56GBAlJ1qz86L-118" value="Вывести сообщение о истечению срока работы карты" style="text;html=1;align=center;verticalAlign=middle;whiteSpace=wrap;rounded=0;" vertex="1" parent="1">
          <mxGeometry x="750" y="1300" width="140" height="30" as="geometry" />
        </mxCell>
        <mxCell id="WZWnq2b56GBAlJ1qz86L-121" value="" style="endArrow=none;dashed=1;html=1;dashPattern=1 3;strokeWidth=2;rounded=0;entryX=1.001;entryY=0.86;entryDx=0;entryDy=0;entryPerimeter=0;" edge="1" parent="1" target="WZWnq2b56GBAlJ1qz86L-28">
          <mxGeometry width="50" height="50" relative="1" as="geometry">
            <mxPoint x="240" y="1360" as="sourcePoint" />
            <mxPoint x="290" y="1310" as="targetPoint" />
          </mxGeometry>
        </mxCell>
        <mxCell id="WZWnq2b56GBAlJ1qz86L-122" value="[Карты нет в бд]" style="text;html=1;align=center;verticalAlign=middle;whiteSpace=wrap;rounded=0;" vertex="1" parent="1">
          <mxGeometry x="290" y="1370" width="60" height="30" as="geometry" />
        </mxCell>
        <mxCell id="WZWnq2b56GBAlJ1qz86L-125" value="" style="endArrow=classic;html=1;rounded=0;entryX=0.068;entryY=0.055;entryDx=0;entryDy=0;entryPerimeter=0;exitX=1;exitY=0.058;exitDx=0;exitDy=0;exitPerimeter=0;" edge="1" parent="1">
          <mxGeometry width="50" height="50" relative="1" as="geometry">
            <mxPoint x="426" y="1426" as="sourcePoint" />
            <mxPoint x="1097" y="1427" as="targetPoint" />
          </mxGeometry>
        </mxCell>
        <mxCell id="WZWnq2b56GBAlJ1qz86L-126" value="Вывести сообщение о отсутствии карты в БД" style="text;html=1;align=center;verticalAlign=middle;whiteSpace=wrap;rounded=0;" vertex="1" parent="1">
          <mxGeometry x="740" y="1390" width="180" height="30" as="geometry" />
        </mxCell>
        <mxCell id="WZWnq2b56GBAlJ1qz86L-129" value="" style="endArrow=none;dashed=1;html=1;dashPattern=1 3;strokeWidth=2;rounded=0;exitX=0.003;exitY=0.867;exitDx=0;exitDy=0;exitPerimeter=0;entryX=1.001;entryY=0.867;entryDx=0;entryDy=0;entryPerimeter=0;" edge="1" parent="1">
          <mxGeometry width="50" height="50" relative="1" as="geometry">
            <mxPoint x="238.97500000000014" y="1444.43" as="sourcePoint" />
            <mxPoint x="1561.3250000000003" y="1444.43" as="targetPoint" />
          </mxGeometry>
        </mxCell>
        <mxCell id="WZWnq2b56GBAlJ1qz86L-130" value="[Карта уже использовалась сегодня]" style="text;html=1;align=center;verticalAlign=middle;whiteSpace=wrap;rounded=0;" vertex="1" parent="1">
          <mxGeometry x="265" y="1465" width="110" height="30" as="geometry" />
        </mxCell>
        <mxCell id="WZWnq2b56GBAlJ1qz86L-131" value="" style="endArrow=classic;html=1;rounded=0;entryX=0.068;entryY=0.055;entryDx=0;entryDy=0;entryPerimeter=0;exitX=1;exitY=0.058;exitDx=0;exitDy=0;exitPerimeter=0;" edge="1" parent="1">
          <mxGeometry width="50" height="50" relative="1" as="geometry">
            <mxPoint x="426" y="1496" as="sourcePoint" />
            <mxPoint x="1097" y="1497" as="targetPoint" />
          </mxGeometry>
        </mxCell>
        <mxCell id="WZWnq2b56GBAlJ1qz86L-132" value="Вывести сообщение о запрете повторного использования карты" style="text;html=1;align=center;verticalAlign=middle;whiteSpace=wrap;rounded=0;" vertex="1" parent="1">
          <mxGeometry x="737" y="1458" width="180" height="30" as="geometry" />
        </mxCell>
        <mxCell id="WZWnq2b56GBAlJ1qz86L-133" value="" style="endArrow=classic;html=1;rounded=0;exitX=1.033;exitY=0.02;exitDx=0;exitDy=0;exitPerimeter=0;entryX=-0.03;entryY=0.045;entryDx=0;entryDy=0;entryPerimeter=0;" edge="1" parent="1">
          <mxGeometry width="50" height="50" relative="1" as="geometry">
            <mxPoint x="426" y="1600" as="sourcePoint" />
            <mxPoint x="916" y="1600" as="targetPoint" />
          </mxGeometry>
        </mxCell>
        <mxCell id="WZWnq2b56GBAlJ1qz86L-134" value="Включить красный цвет" style="text;html=1;align=center;verticalAlign=middle;whiteSpace=wrap;rounded=0;" vertex="1" parent="1">
          <mxGeometry x="590" y="1560" width="130" height="30" as="geometry" />
        </mxCell>
        <mxCell id="WZWnq2b56GBAlJ1qz86L-135" value="" style="endArrow=classic;html=1;rounded=0;exitX=1.06;exitY=0.993;exitDx=0;exitDy=0;exitPerimeter=0;" edge="1" parent="1" source="WZWnq2b56GBAlJ1qz86L-13">
          <mxGeometry width="50" height="50" relative="1" as="geometry">
            <mxPoint x="432" y="1679" as="sourcePoint" />
            <mxPoint x="1092" y="1679" as="targetPoint" />
          </mxGeometry>
        </mxCell>
        <mxCell id="WZWnq2b56GBAlJ1qz86L-136" value="Вывести сообщение о ожидании карты" style="text;html=1;align=center;verticalAlign=middle;whiteSpace=wrap;rounded=0;" vertex="1" parent="1">
          <mxGeometry x="760" y="1640" width="120" height="30" as="geometry" />
        </mxCell>
      </root>
    </mxGraphModel>
  </diagram>
</mxfile>
